
<svg version="1.0" xmlns="http://www.w3.org/2000/svg"
 width="512.000000pt" height="512.000000pt" viewBox="0 0 512.000000 512.000000"
 preserveAspectRatio="xMidYMid meet">

<g transform="translate(0.000000,512.000000) scale(0.100000,-0.100000)"
fill="#178fbe" stroke="none">
<path d="M2400 5027 c-174 -59 -293 -183 -344 -356 -30 -102 -18 -252 28 -362
5 -11 -7 -25 -41 -49 -72 -51 -170 -148 -219 -215 -43 -61 -114 -199 -114
-222 0 -10 -31 -13 -130 -13 l-130 0 2 -202 3 -203 112 -3 111 -3 17 -72 c60
-249 165 -430 367 -634 l111 -111 -36 -670 c-33 -610 -38 -674 -56 -710 -42
-82 -115 -119 -215 -107 -222 25 -472 230 -604 496 -36 73 -92 219 -92 240 0
4 41 -8 91 -27 51 -19 95 -34 99 -34 6 0 -196 719 -204 727 -2 2 -36 -8 -76
-22 -262 -89 -473 -336 -510 -596 -6 -40 -9 -73 -7 -75 2 -2 91 15 203 41 20
4 21 -1 27 -85 28 -383 233 -793 500 -993 147 -111 282 -167 505 -211 136 -27
271 -70 357 -114 142 -71 286 -194 364 -310 l42 -63 38 58 c21 32 60 82 87
111 l49 52 49 -15 c239 -74 546 46 686 268 31 49 42 58 95 77 312 113 569 410
694 804 35 109 71 301 71 377 0 46 2 49 23 44 107 -24 202 -43 204 -41 2 2 -1
36 -7 76 -28 199 -173 412 -358 524 -55 33 -220 101 -227 94 -13 -13 -210
-728 -201 -728 6 1 49 16 96 34 47 19 87 32 89 30 8 -7 -53 -169 -94 -249 -53
-103 -116 -194 -178 -253 l-45 -44 -16 74 c-40 177 -142 346 -316 518 -86 86
-273 243 -327 275 -2 1 -16 257 -33 571 -16 313 -31 593 -33 621 l-4 53 381 2
381 3 3 203 2 202 -393 0 -394 0 -6 98 c-13 196 -13 200 37 248 215 205 217
537 6 745 -105 104 -217 149 -370 149 -61 0 -103 -7 -150 -23z m322 -131 c163
-78 258 -253 230 -423 -44 -264 -320 -415 -556 -305 -71 33 -131 81 -119 93 5
5 46 24 91 43 77 31 85 33 120 20 102 -36 213 8 267 107 24 44 27 59 23 119
-3 54 -9 75 -33 109 -90 130 -286 129 -373 -1 -23 -36 -27 -51 -27 -117 0 -42
4 -83 8 -92 7 -14 -31 -37 -150 -86 -23 -9 -46 102 -41 196 9 164 93 279 255
347 51 22 70 24 153 21 79 -3 105 -8 152 -31z m-119 -267 c60 -31 77 -114 33
-162 -65 -70 -176 -29 -176 65 0 49 13 73 48 92 33 18 66 20 95 5z m-394 -481
c46 -43 46 -41 34 -231 l-6 -107 -204 0 -203 0 14 34 c24 57 85 146 139 203
55 58 165 146 177 141 4 -2 26 -20 49 -40z m550 -280 l1 -58 -201 0 -202 0 7
112 c4 62 8 114 10 115 1 2 34 -4 72 -12 88 -19 153 -18 234 3 l65 17 6 -60
c4 -33 7 -86 8 -117z m-1091 -260 l-3 -83 -45 0 -45 0 -3 83 -3 82 51 0 51 0
-3 -82z m1880 0 l-3 -83 -877 -3 -878 -2 0 69 c0 38 3 76 6 85 6 14 92 16 880
16 l875 0 -3 -82z m-1335 -265 c-2 -32 -10 -177 -18 -322 -8 -145 -16 -265
-18 -267 -2 -3 -39 32 -81 76 -142 148 -235 318 -281 513 l-13 57 207 0 207 0
-3 -57z m571 25 c8 -50 58 -1060 54 -1090 -3 -26 -7 -23 -164 85 -134 93 -290
207 -362 264 -14 11 -14 48 2 370 9 197 19 368 22 381 l4 22 220 0 219 0 5
-32z m-122 -1143 c185 -127 187 -129 192 -169 3 -23 14 -221 26 -440 20 -387
21 -401 46 -457 45 -100 144 -173 252 -186 65 -7 167 10 243 42 107 44 99 48
82 -42 -17 -92 -70 -259 -87 -271 -6 -5 -63 -19 -128 -31 -269 -49 -481 -152
-656 -318 l-72 -68 -69 66 c-172 166 -378 264 -674 324 -71 14 -166 39 -211
56 -276 100 -494 342 -616 684 -53 152 -71 245 -77 423 -4 118 -9 162 -17 159
-23 -9 -178 -39 -181 -35 -2 2 12 37 32 78 28 58 55 94 122 160 79 79 191 154
206 139 5 -5 115 -379 111 -379 -1 0 -37 14 -79 30 -43 17 -83 30 -88 30 -27
0 33 -249 97 -400 82 -196 229 -388 380 -496 137 -98 318 -161 435 -151 108 9
208 76 255 170 33 65 39 122 69 732 14 281 28 533 31 562 l5 52 92 -67 c51
-37 176 -126 279 -197z m1457 83 c86 -48 209 -178 253 -268 21 -41 35 -76 33
-78 -3 -4 -130 21 -177 34 -16 5 -18 -5 -18 -119 0 -154 -20 -278 -71 -430
-72 -219 -197 -423 -333 -542 -57 -50 -225 -160 -232 -152 -2 2 5 32 16 67 22
75 50 228 50 276 0 29 12 45 91 121 159 153 283 372 342 603 30 115 41 200 28
200 -5 0 -45 -13 -88 -30 -42 -16 -78 -30 -79 -30 -1 0 18 69 42 153 25 83 49
169 55 190 5 20 15 37 21 37 6 0 36 -14 67 -32z m-928 -486 c190 -179 298
-370 324 -577 l7 -50 -66 -33 c-90 -45 -135 -60 -205 -68 -97 -11 -170 26
-212 107 -17 34 -22 84 -39 392 -11 193 -20 365 -20 380 l0 28 61 -48 c34 -26
102 -85 150 -131z m89 -1314 c-30 -28 -87 -66 -125 -85 -83 -39 -213 -62 -266
-47 l-34 10 105 51 c113 55 197 85 300 108 36 7 67 14 70 14 3 0 -20 -23 -50
-51z"/>
<path d="M2360 2015 l0 -135 60 0 60 0 0 135 0 135 -60 0 -60 0 0 -135z"/>
<path d="M2356 1731 c-3 -14 -8 -114 -11 -221 -11 -332 -25 -404 -99 -495
l-33 -40 39 -45 39 -45 39 45 c47 53 93 145 110 216 8 38 42 591 36 600 -1 1
-27 4 -58 6 -55 4 -57 4 -62 -21z"/>
</g>
</svg>
