
<svg version="1.0" xmlns="http://www.w3.org/2000/svg"
 width="512.000000pt" height="512.000000pt" viewBox="0 0 512.000000 512.000000"
 preserveAspectRatio="xMidYMid meet">

<g transform="translate(0.000000,512.000000) scale(0.100000,-0.100000)"
fill="#16aa8a" stroke="none">
<path d="M2375 4534 c-210 -18 -433 -62 -650 -130 -535 -166 -1112 -517 -1547
-942 -166 -162 -173 -178 -172 -362 2 -308 119 -565 370 -812 49 -49 124 -114
166 -145 l77 -58 -6 -51 c-7 -65 10 -116 54 -165 l35 -39 -145 -207 c-80 -115
-150 -227 -157 -250 -18 -59 -5 -124 34 -176 67 -89 404 -281 646 -371 384
-141 757 -212 1242 -237 648 -34 1280 65 1810 282 223 91 498 252 551 321 14
18 32 55 38 81 22 79 5 116 -157 349 l-146 208 32 36 c42 48 52 77 52 154 l0
65 77 58 c267 201 444 454 513 734 16 67 22 120 22 223 1 184 -6 200 -172 362
-429 419 -1007 773 -1531 938 -292 91 -513 129 -796 134 -104 2 -212 2 -240 0z
m500 -170 c143 -18 334 -61 494 -111 504 -159 1049 -493 1473 -905 128 -124
131 -131 118 -291 -16 -186 -68 -333 -171 -483 -64 -92 -187 -220 -291 -302
l-78 -61 -47 27 -48 27 -1765 0 -1765 0 -47 -27 -47 -26 -78 61 c-224 176
-370 379 -434 605 -24 85 -39 282 -26 334 15 60 326 341 570 516 507 364 1057
589 1562 641 202 21 383 19 580 -5z m1450 -2279 c35 -34 34 -93 -1 -129 l-27
-26 -1729 0 c-1296 0 -1735 3 -1751 12 -54 29 -64 98 -21 142 l27 26 1739 0
1739 0 24 -25z m234 -801 c-53 -58 -286 -191 -470 -268 -389 -163 -832 -255
-1326 -275 -832 -35 -1578 129 -2093 459 -101 65 -134 101 -126 134 8 34 21
33 84 -9 123 -83 374 -196 609 -273 434 -144 1051 -215 1582 -183 214 13 248
23 257 70 5 25 11 29 53 34 41 5 48 3 65 -19 30 -40 57 -45 144 -29 82 16 112
37 112 80 0 19 7 24 46 30 41 6 47 4 65 -19 26 -33 63 -34 177 -2 278 79 559
196 752 315 l65 40 14 -30 c14 -27 13 -31 -10 -55z"/>
<path d="M2385 4033 c-307 -65 -555 -306 -635 -618 -29 -111 -29 -279 -1 -395
43 -172 149 -341 283 -449 69 -57 224 -141 258 -141 11 0 32 11 46 25 23 23
31 25 72 19 57 -8 82 -20 82 -39 0 -8 10 -24 23 -36 20 -19 29 -21 107 -15
358 25 658 276 751 631 15 60 21 110 21 200 0 184 -50 341 -156 489 -190 265
-532 398 -851 329z m262 -274 c40 -13 103 -74 127 -123 46 -97 7 -228 -86
-288 l-48 -31 0 -249 0 -249 23 7 c69 21 162 98 197 164 18 33 40 119 40 154
0 66 85 102 130 54 37 -40 19 -177 -38 -282 -36 -67 -135 -167 -197 -198 -153
-78 -317 -78 -470 0 -62 31 -161 131 -197 198 -57 105 -75 242 -38 282 44 47
130 12 130 -52 0 -37 22 -123 40 -156 35 -66 128 -143 198 -164 l22 -7 0 249
0 249 -48 31 c-64 41 -102 110 -103 185 -1 65 6 89 38 139 60 90 163 122 280
87z"/>
<path d="M2505 3595 c-50 -49 -15 -135 55 -135 19 0 40 9 55 25 16 15 25 36
25 55 0 19 -9 40 -25 55 -15 16 -36 25 -55 25 -19 0 -40 -9 -55 -25z"/>
</g>
</svg>
