 
<svg version="1.0" xmlns="http://www.w3.org/2000/svg"
 width="32" height="32" viewBox="0 0 512.000000 512.000000"
 preserveAspectRatio="xMidYMid meet">

<g transform="translate(0.000000,512.000000) scale(0.100000,-0.100000)"
fill="#ffffff" stroke="none">
<path d="M2335 5109 c-496 -46 -977 -238 -1370 -547 -90 -71 -336 -317 -407
-407 -261 -332 -437 -720 -513 -1132 -119 -645 19 -1328 377 -1864 120 -179
184 -257 342 -414 406 -403 896 -643 1476 -721 166 -23 472 -23 640 0 577 77
1078 324 1485 731 745 745 956 1850 540 2825 -75 175 -183 359 -319 540 -87
117 -331 363 -447 453 -370 285 -790 462 -1239 523 -135 18 -436 25 -565 13z
m613 -1616 c9 -13 12 -83 12 -270 l0 -253 32 0 c62 0 68 -15 68 -187 l0 -153
122 0 c157 0 158 -1 158 -122 l0 -88 74 0 c85 0 79 5 151 -119 l51 -86 274 -3
c237 -2 276 -5 292 -19 10 -9 18 -23 18 -32 0 -17 -294 -497 -325 -531 -18
-20 -43 -20 -1421 -20 l-1404 0 -14 23 c-13 20 -116 380 -116 405 0 7 9 21 20
32 18 18 33 20 150 20 l130 0 0 74 0 73 -47 6 c-73 8 -104 56 -63 97 18 18 33
20 167 20 162 0 183 -7 183 -60 0 -36 -20 -51 -75 -58 l-45 -5 0 -73 0 -74
103 0 102 0 39 108 c52 145 57 152 106 152 l40 0 0 118 c0 64 4 122 8 128 15
23 51 35 72 24 33 -18 40 -45 40 -160 l0 -111 63 3 62 3 3 254 c2 220 5 257
19 273 21 24 48 23 73 -2 19 -19 20 -33 20 -275 l0 -255 39 0 c64 0 71 -14 71
-146 l0 -114 45 0 45 0 0 149 c0 181 0 181 100 181 l68 0 4 88 c2 56 8 95 17
105 11 14 34 17 137 17 l124 0 0 150 c0 137 2 152 20 170 12 12 33 20 55 20
l36 0 -3 108 -3 107 -313 5 c-263 4 -314 7 -322 20 -16 24 -13 275 3 289 13
10 631 22 697 13 14 -2 31 -10 38 -19z"/>
<path d="M2310 3350 l0 -50 265 0 265 0 0 50 0 50 -265 0 -265 0 0 -50z"/>
<path d="M2860 2745 l0 -115 45 0 45 0 0 115 0 115 -45 0 -45 0 0 -115z"/>
<path d="M2580 2470 l0 -50 325 0 325 0 0 50 0 50 -325 0 -325 0 0 -50z"/>
<path d="M2400 2162 c0 -112 -3 -153 -14 -168 -14 -18 -33 -19 -520 -22 -369
-2 -506 -6 -506 -14 0 -6 14 -62 32 -125 l31 -113 523 0 522 0 768 180 c423
99 778 185 789 190 13 5 -65 9 -213 9 -128 1 -241 5 -251 11 -10 5 -44 52 -75
105 l-57 95 -514 0 -515 0 0 -148z m312 -49 c10 -9 18 -29 18 -44 0 -41 -32
-59 -106 -59 -96 0 -144 50 -94 100 27 27 153 29 182 3z m296 1 c25 -17 29
-51 8 -79 -20 -27 -145 -35 -181 -11 -29 19 -33 60 -8 88 22 24 147 26 181 2z
m294 4 c30 -24 31 -56 4 -83 -21 -21 -34 -25 -86 -25 -105 0 -153 47 -100 100
16 16 33 20 93 20 43 0 80 -5 89 -12z"/>
<path d="M1713 2223 c-3 -10 -14 -40 -25 -66 -10 -26 -18 -52 -18 -57 0 -6 82
-10 210 -10 l210 0 0 75 0 75 -185 0 c-168 0 -186 -2 -192 -17z"/>
<path d="M1055 1958 c6 -20 43 -149 55 -195 l11 -43 89 0 c62 0 90 4 90 12 0
6 -14 62 -32 125 l-31 113 -93 0 c-70 0 -92 -3 -89 -12z"/>
<path d="M3440 1835 l-475 -114 420 0 420 0 65 106 c76 123 76 123 58 122 -7
-1 -227 -52 -488 -114z"/>
</g>
</svg>
