<!-- icon666.com - MILLIONS OF FREE VECTOR ICONS --><svg clip-rule="evenodd" fill-rule="evenodd" image-rendering="optimizeQuality" shape-rendering="geometricPrecision" text-rendering="geometricPrecision" viewBox="0 0 2.66666 2.66666" xmlns="http://www.w3.org/2000/svg"><g id="Layer_x0020_1"><circle cx="1.333" cy="1.333" r="1.333" fill="rgb(41, 48, 255)"></circle><path d="m.675579 1.72817c-.0214134-.038-.0406142-.0784606-.0595787-.118406l-.0495984-.104024c-.00608268-.0127677-.00498425-.0277913.00288976-.0395276.00787795-.0117362.0214016-.0186417.0354882-.0176417l.670185.0381339v-.863713c0-.0221024.0178976-.04.04-.04.0220984 0 .04.0178976.04.04v.868264l.711441.0404803c.0211654.00120079.0377205.0187244.0377205.0399331 0 .062315-.0172244.124059-.0480079.178122-.00525591.00221654-.0105354.00451969-.0158465.00687008-.00850394.00376772-.0325354.0149685-.0414843.0149685-.0089685 0-.0329528-.0111811-.0414764-.0149528-.034689-.0153504-.0676496-.028685-.106398-.028685-.038748 0-.0717047.0133228-.106394.0286693-.00851181.00376772-.0325276.0149685-.0414843.0149685-.00894882 0-.0329685-.0112047-.0414724-.0149685-.034685-.0153465-.0676535-.0286693-.106394-.0286693-.038748 0-.0717087.0133386-.106398.028685-.00851575.00376772-.0325118.0149528-.0414764.0149528-.00896063 0-.0329685-.0111969-.0414803-.0149685-.034685-.0153465-.0676575-.0286693-.106398-.0286693-.0387323 0-.0717126.0133268-.10639.0286693-.00851575.00376772-.0325236.0149685-.0414843.0149685-.00896063 0-.0329685-.0112008-.0414843-.0149685-.0346811-.0153465-.0676614-.0286693-.106398-.0286693-.0387402 0-.0717244.0133228-.106409.0286732-.00851181.00376772-.0325118.0149646-.0414724.0149646-.00896063 0-.0329685-.0112008-.0414843-.0149685-.0323661-.0143228-.063248-.026878-.0987165-.0284921zm.783276-.329394c-.00623622 0-.0125276-.00146063-.0183386-.00444488-.0149016-.00770866-.0234291-.0238858-.0213307-.0405394.0295-.234795.0319134-.289378.00005512-.521157-.00156693-.0114449.0018937-.0230315.00948819-.0317402.00759449-.00870866.0185984-.0137047.0301535-.0137047.249614 0 .452685.203071.452685.452681v.071937c0 .0131654-.00648819.0254843-.0173307.0329606-.0108346.0074685-.0246417.00912205-.0369724.00438583-.064878-.0248425-.124433-.0374449-.176992-.0374449-.0746496 0-.13822.0250394-.194335.0765591-.00755512.0069252-.0172598.0105079-.0270827.0105079zm-.270945 0c-.00980709 0-.0195039-.00359449-.0270591-.0105315-.0708858-.0650787-.151224-.0967205-.245598-.0967205-.065874 0-.140335.0157205-.221291.0467323-.0122795.00472441-.0261102.00308268-.0369843-.00438583-.0108504-.00747244-.0173386-.0197913-.0173386-.0329646v-.0885787c0-.302307.245945-.54826.54826-.54826.0115551 0 .0225551.00500394.0301535.0137087.00759449.00870472.0110354.0202795.0094685.0317362-.0391693.284961-.0364291.35328-.00052756.639575.00077559.00311417.00117717.00634646.00117717.00967717 0 .0221024-.0179173.04-.04.04-.00012598-.00001181-.00017717.00001181-.00025984.00001181zm.810866.684894c-.0331142 0-.0633898-.0134173-.090126-.025248-.021378-.00947244-.0415551-.0184055-.057748-.0184055-.0161811 0-.0363622.00894488-.0577402.0184055-.0267362.0118465-.0570276.025248-.0901378.025248-.0331063 0-.0634016-.0134173-.090126-.025248-.021374-.00947244-.0415551-.0184055-.0577362-.0184055-.0161969 0-.036374.00894488-.057752.0184055-.0267323.0118465-.0570118.025248-.090126.025248s-.0634016-.0134173-.0901378-.025248c-.021374-.00947244-.0415512-.0184055-.0577362-.0184055-.0161772 0-.036374.00894488-.0577402.0184055-.0267323.0118465-.0570276.025248-.0901339.025248-.0330984 0-.0634055-.0134173-.0901378-.025248-.021378-.00947244-.0415551-.0184055-.057752-.0184055-.0161929 0-.0363701.00894488-.057748.0184055-.0267244.0118465-.0570118.025248-.090126.025248s-.0634016-.0134173-.0901378-.025248c-.021374-.00947244-.0415551-.0184055-.057748-.0184055s-.036374.00894488-.057748.0184055c-.0267244.0118465-.0570315.025248-.0901378.025248-.0220827 0-.04-.0179016-.04-.04s.0179173-.04.04-.04c.0161929 0 .036374-.00894488.057748-.0184055.0267244-.0118465.0570315-.025248.0901378-.025248s.0634016.0134173.0901378.025248c.021374.00947244.0415551.0184055.057748.0184055.0161772 0 .0363622-.00894488.0577402-.0184055.0267323-.0118465.0570276-.025248.0901339-.025248.0331102 0 .0634055.0134173.0901378.025248.021378.00947244.0415551.0184055.0577402.0184055.016185 0 .036374-.00894488.0577362-.0184055.0267362-.0118465.0570315-.025248.0901378-.025248.0331102 0 .0634016.0134173.090126.025248.021378.00947244.0415551.0184055.057752.0184055.0161772 0 .0363622-.00894488.0577362-.0184055.0267362-.0118465.0570315-.025248.0901378-.025248s.0634016.0134173.090126.025248c.021378.00947244.0415551.0184055.0577402.0184055.0161929 0 .0363701-.00894488.057748-.0184055.0267362-.0118465.0570118-.025248.090126-.025248s.0634016.0134173.0901378.025248c.021374.00947244.0415551.0184055.0577362.0184055.016185 0 .036374-.00894488.0577402-.0184055.0267362-.0118465.0570276-.025248.0901378-.025248.0220984 0 .04.0179016.04.04s-.0179016.04-.04.04c-.0161811 0-.036374.00894488-.0577402.0184055-.0267244.0118307-.0570276.025248-.090126.025248zm0-.19185c-.0331142 0-.0633898-.0134173-.090126-.0252323-.021378-.0094685-.0415551-.0184055-.057748-.0184055-.0161811 0-.0363622.00894488-.0577402.0183898-.0267362.0118465-.0570276.025248-.0901378.025248-.0331063 0-.0633898-.0134173-.090126-.0252323-.021374-.0094685-.0415551-.0184055-.0577362-.0184055-.0161969 0-.036374.00894488-.057752.0184055-.0267323.0118307-.0570118.0252323-.090126.0252323s-.0634016-.0134173-.0901378-.0252323c-.021374-.0094685-.0415512-.0184055-.0577362-.0184055s-.036374.00894488-.0577402.0184055c-.0267323.0118307-.0570276.0252323-.0901339.0252323-.0330984 0-.0633937-.0134173-.0901299-.0252323-.021374-.0094685-.0415669-.0184055-.057748-.0184055-.0161772 0-.036374.00894488-.057748.0184055-.0267362.0118307-.0570276.0252323-.090126.0252323-.0331142 0-.0634016-.0134173-.0901378-.0252323-.021378-.0094685-.0415551-.0184055-.057748-.0184055-.0161969 0-.036374.00894488-.057748.0184055-.0267362.0118307-.0570315.0252323-.0901378.0252323-.0220866 0-.04-.0178976-.04-.04 0-.0220984.0179134-.04.04-.04.0161929 0 .0363701-.00894488.057748-.0184016.0267362-.0118346.0570276-.0252362.0901378-.0252362.0331063 0 .0634016.0134173.0901378.0252362.021374.0094685.0415512.0184016.057748.0184016.0161929 0 .036374-.00894488.0577362-.0184016.0267362-.0118346.0570315-.0252362.0901378-.0252362.0331102 0 .0634016.0134173.0901378.0252362.021374.0094685.0415551.0184016.057748.0184016.0161969 0 .036374-.00894488.057748-.0184016.0267362-.0118346.0570315-.0252362.0901299-.0252362.0331102 0 .0634016.0134173.090126.0252362.021374.0094685.0415551.0184016.057748.0184016.0161772 0 .0363622-.00894488.0577362-.0183858.0267362-.0118504.0570315-.025252.0901378-.025252.0331102 0 .0633937.0134173.0901299.0252362.021374.0094685.0415512.0184016.0577362.0184016.0161929 0 .036374-.00894488.057748-.0184016.0267362-.0118346.0570157-.0252362.090126-.0252362.0331142 0 .0634055.0134173.0901378.025252.021378.00945669.0415551.0183858.0577402.0183858.0161811 0 .0363701-.00894488.057748-.0184016.0267362-.0118346.0570118-.0252362.090126-.0252362.0220984 0 .04.0179016.04.04 0 .0221024-.0179016.04-.04.04-.0161772 0-.036374.00894488-.057748.0184055-.0267441.011815-.0570394.0252323-.0901378.0252323zm.0361969-.204571c.0105433 0 .0192283-.00825984.0198307-.0187795.00062598-.010937-.00779921-.020378-.0187362-.021l-.938264-.0533898c-.0108898-.00062205-.0203819.00783858-.0210039.0187362-.00062205.0109409.00781102.0203819.018752.0210039l.938244.0533898c.0003937.00002362.00078347.00003937.00117717.00003937z" fill="#fff"></path></g></svg>